<svg xmlns="http://www.w3.org/2000/svg" width="32" height="32" id="city"><path fill-rule="evenodd" d="M19.614 3.662V14h-1.613v2h2v-3h5v2.453h4v2h3V5.726h-4.129v7.227h-3.098V3.662zM.001 4.695v13.26h3.45v2H4.5v-4.5h2.412v-2h5.088V11h2.451V7.793h-2.064V6.759H9.292v1.034H7.227v3.095H3.2V4.695zM13 12v4.453h-1.813v-2H7.913v2H5.501v4.5H2.45v-2H.05L.002 29h10.535V22.85a1 1 0 0 1-.6-1.701l5.358-5.357a1 1 0 0 1 .691-.291c.27-.01.531.1.723.29l.293.294V12h-4zm8 2 .018 5.92s-.004.113-.014.17l1.06 1.06a1 1 0 0 1-.6 1.701V29h10.536V18.453h-4v-2h-4V14zm-5 2.5-5.357 5.357h10.714zm3.125 1.785v.754l.893.879v-1.633zm-7.59 4.017V29h3.572v-4.01h1.786V29h3.572v-6.698z"></path></svg>