<svg xmlns="http://www.w3.org/2000/svg" data-name="Layer 1" viewBox="0 0 128 128" id="city-building"><path d="M2.374 14.53a2 2 0 0 0 .98 2.653l4.13 1.902a2 2 0 0 0 1.674-3.632L5.027 13.55a1.997 1.997 0 0 0-2.653.98zM18.39 9.836a2.003 2.003 0 0 0 1.89-2.653L18.777 2.82a2 2 0 1 0-3.781 1.305L16.5 8.488a2.001 2.001 0 0 0 1.89 1.348zM3.191 34.647a2.003 2.003 0 0 0 .72-.134l4.338-1.674a2 2 0 0 0-1.44-3.733L2.471 30.78a2 2 0 0 0 .72 3.867zm7.703-27.81a2 2 0 1 0-2.972 2.678l3.052 3.39a2 2 0 1 0 2.973-2.678zM2 22.01a2 2 0 0 0-.05 4l4.586.113a.877.877 0 0 0 .05 0 2 2 0 0 0 .05-3.998l-4.586-.114H2zM7.48 42a1.994 1.994 0 0 0 1.36-.532l3.45-3.196a2 2 0 0 0-2.72-2.935l-3.45 3.195A2 2 0 0 0 7.48 42zM25.562 8.667a2 2 0 0 0 1.992-1.843l.368-4.668a2 2 0 1 0-3.988-.314l-.368 4.668a2 2 0 0 0 1.837 2.151c.054.004.106.006.16.006zM12.23 30.037a12.941 12.941 0 0 0 6.766 7.392 2 2 0 0 0 1.672-3.633 8.975 8.975 0 0 1-4.681-5.131 10.09 10.09 0 0 1 .401-7.795c2.34-4.983 8.074-7.273 12.776-5.106a2 2 0 0 0 1.674-3.633c-6.695-3.085-14.801.075-18.07 7.04a14.055 14.055 0 0 0-.538 10.867zM98 62a2 2 0 0 0-4 0v4a2 2 0 0 0 4 0zm8 0a2 2 0 0 0-4 0v4a2 2 0 0 0 4 0zm-8 12a2 2 0 0 0-4 0v4a2 2 0 0 0 4 0zm8 0a2 2 0 0 0-4 0v4a2 2 0 0 0 4 0zm-8 12a2 2 0 0 0-4 0v4a2 2 0 0 0 4 0zm8 0a2 2 0 0 0-4 0v4a2 2 0 0 0 4 0zM96 96a2 2 0 0 0-2 2v4a2 2 0 0 0 4 0v-4a2 2 0 0 0-2-2zm8 0a2 2 0 0 0-2 2v4a2 2 0 0 0 4 0v-4a2 2 0 0 0-2-2zM34 62a2 2 0 0 0-4 0v4a2 2 0 0 0 4 0zm-8 0a2 2 0 0 0-4 0v4a2 2 0 0 0 4 0zm8 12a2 2 0 0 0-4 0v4a2 2 0 0 0 4 0zm-8 0a2 2 0 0 0-4 0v4a2 2 0 0 0 4 0zm8 12a2 2 0 0 0-4 0v4a2 2 0 0 0 4 0zm-8 0a2 2 0 0 0-4 0v4a2 2 0 0 0 4 0zm6 10a2 2 0 0 0-2 2v4a2 2 0 0 0 4 0v-4a2 2 0 0 0-2-2zm-8 0a2 2 0 0 0-2 2v4a2 2 0 0 0 4 0v-4a2 2 0 0 0-2-2z"></path><path d="M128 107.287c0-2.411-1.24-6.46-3.685-12.035a3.567 3.567 0 0 0-6.63-.001c-2.445 5.576-3.685 9.625-3.685 12.036 0 4.477 2.08 8.152 5 9.32V124h-4v-5.168a12.331 12.331 0 0 1-3-3.594V124h-5v-10a4.004 4.004 0 0 0-4-4h-6a4.004 4.004 0 0 0-4 4v10h-5V20a4 4 0 0 0-4-4H44a4 4 0 0 0-4 4v104h-5v-10a4.004 4.004 0 0 0-4-4h-6a4.004 4.004 0 0 0-4 4v10h-5v-8.762a12.331 12.331 0 0 1-3 3.594V124H9v-7.394c2.92-1.167 5-4.842 5-9.319 0-2.411-1.24-6.46-3.685-12.035A3.62 3.62 0 0 0 7 93a3.62 3.62 0 0 0-3.315 2.251C1.24 100.827 0 104.876 0 107.287c0 4.477 2.08 8.152 5 9.32V124H2a2 2 0 0 0 0 4h124a2 2 0 0 0 0-4h-3v-7.394c2.92-1.167 5-4.842 5-9.319ZM31 124h-6v-10h6Zm35-98a2 2 0 0 1 4 0v4a2 2 0 0 1-4 0Zm0 12a2 2 0 0 1 4 0v4a2 2 0 0 1-4 0Zm0 12a2 2 0 0 1 4 0v4a2 2 0 0 1-4 0Zm0 12a2 2 0 0 1 4 0v4a2 2 0 0 1-4 0Zm0 12a2 2 0 0 1 4 0v4a2 2 0 0 1-4 0Zm0 12a2 2 0 0 1 4 0v4a2 2 0 0 1-4 0Zm-8-60a2 2 0 0 1 4 0v4a2 2 0 0 1-4 0Zm0 12a2 2 0 0 1 4 0v4a2 2 0 0 1-4 0Zm0 12a2 2 0 0 1 4 0v4a2 2 0 0 1-4 0Zm0 12a2 2 0 0 1 4 0v4a2 2 0 0 1-4 0Zm0 12a2 2 0 0 1 4 0v4a2 2 0 0 1-4 0Zm0 12a2 2 0 0 1 4 0v4a2 2 0 0 1-4 0Zm-8-60a2 2 0 0 1 4 0v4a2 2 0 0 1-4 0Zm0 12a2 2 0 0 1 4 0v4a2 2 0 0 1-4 0Zm0 12a2 2 0 0 1 4 0v4a2 2 0 0 1-4 0Zm0 12a2 2 0 0 1 4 0v4a2 2 0 0 1-4 0Zm0 12a2 2 0 0 1 4 0v4a2 2 0 0 1-4 0Zm2 18a2 2 0 0 1-2-2v-4a2 2 0 0 1 4 0v4a2 2 0 0 1-2 2Zm22 32H54v-22a2 2 0 0 1 2-2h16a2 2 0 0 1 2 2Zm4-34a2 2 0 0 1-4 0v-4a2 2 0 0 1 4 0Zm0-12a2 2 0 0 1-4 0v-4a2 2 0 0 1 4 0Zm0-12a2 2 0 0 1-4 0v-4a2 2 0 0 1 4 0Zm0-12a2 2 0 0 1-4 0v-4a2 2 0 0 1 4 0Zm0-12a2 2 0 0 1-4 0v-4a2 2 0 0 1 4 0Zm0-12a2 2 0 0 1-4 0v-4a2 2 0 0 1 4 0Zm25 94h-6v-10h6Z"></path><path d="M114.021 93.645A7.859 7.859 0 0 1 116 90.92V51.053c0-2.5-1.75-4.136-4.571-4.527L92 42.68v4.078l19.429 3.77a.55.55 0 0 1 .571.526V98.63a87.473 87.473 0 0 1 2.021-4.986zM36 42.679l-19.429 3.847C13.98 46.854 12 48.553 12 51.053V90.92a7.86 7.86 0 0 1 1.979 2.725A87.391 87.391 0 0 1 16 98.632v-47.58a.55.55 0 0 1 .571-.526L36 46.756z"></path></svg>