<svg xmlns="http://www.w3.org/2000/svg" viewBox="0 0 64 64" id="money"><path d="M32,46A10,10,0,1,0,22,36,10.011,10.011,0,0,0,32,46Zm0-18a8,8,0,1,1-8,8A8.009,8.009,0,0,1,32,28Z"></path><path d="M32,39a1,1,0,0,1-1-1,1,1,0,0,0-2,0,3,3,0,0,0,2,2.816V42a1,1,0,0,0,2,0V40.816A2.993,2.993,0,0,0,32,35a1,1,0,1,1,1-1,1,1,0,0,0,2,0,3,3,0,0,0-2-2.816V30a1,1,0,0,0-2,0v1.184A2.993,2.993,0,0,0,32,37a1,1,0,0,1,0,2Z"></path><path d="M59.218,36h-6.48a27.909,27.909,0,0,0-8.3-12.82l-5.556-4.862a2.974,2.974,0,0,0-1.092-5.2l5.043-7.564a1,1,0,0,0-.067-1.2c-.025-.028-.057-.045-.084-.071l.008-.008A8.36,8.36,0,0,0,37,2a8.223,8.223,0,0,0-4.671,1.466C29.224,2.108,26,.747,21.4,4.2a1,1,0,0,0-.232,1.355l5.043,7.564a2.967,2.967,0,0,0-1.538,4.751L19.94,22.288l1.366,1.461L26.394,19h10.23l6.5,5.685A25.925,25.925,0,0,1,50.641,36H46.782A2.785,2.785,0,0,0,44,38.782v2.436A2.756,2.756,0,0,0,44.664,43,2.756,2.756,0,0,0,44,44.782v2.436a2.765,2.765,0,0,0,.15.861,2.783,2.783,0,0,0-2.15,2.7v2.436a2.783,2.783,0,0,0,2.15,2.7,2.765,2.765,0,0,0-.15.861v2.436a2.9,2.9,0,0,0,.035.35A10.982,10.982,0,0,1,41,60h-.126A2.74,2.74,0,0,0,41,59.218V56.782A2.756,2.756,0,0,0,40.336,55,2.756,2.756,0,0,0,41,53.218V50.782A2.785,2.785,0,0,0,38.218,48H25.782A2.785,2.785,0,0,0,23,50.782v2.436A2.756,2.756,0,0,0,23.664,55,2.756,2.756,0,0,0,23,56.782v2.436a2.74,2.74,0,0,0,.126.782H23a10.982,10.982,0,0,1-3.035-.432,2.9,2.9,0,0,0,.035-.35V56.782a2.765,2.765,0,0,0-.15-.861,2.783,2.783,0,0,0,2.15-2.7V50.782a2.783,2.783,0,0,0-2.15-2.7,2.765,2.765,0,0,0,.15-.861V44.782A2.756,2.756,0,0,0,19.336,43,2.756,2.756,0,0,0,20,41.218V38.782A2.785,2.785,0,0,0,17.218,36h-4.03A26,26,0,0,1,19.7,25.26L18.3,23.839A28.007,28.007,0,0,0,11.1,36H4.782A2.785,2.785,0,0,0,2,38.782v2.436A2.756,2.756,0,0,0,2.664,43,2.756,2.756,0,0,0,2,44.782v2.436a2.783,2.783,0,0,0,2.15,2.7,2.765,2.765,0,0,0-.15.861v2.436a2.765,2.765,0,0,0,.15.861A2.783,2.783,0,0,0,2,56.782v2.436A2.785,2.785,0,0,0,4.782,62H17.218a2.752,2.752,0,0,0,1.759-.645A12.964,12.964,0,0,0,23,62H41a12.964,12.964,0,0,0,4.023-.645A2.752,2.752,0,0,0,46.782,62H59.218A2.785,2.785,0,0,0,62,59.218V56.782a2.783,2.783,0,0,0-2.15-2.7,2.765,2.765,0,0,0,.15-.861V50.782a2.765,2.765,0,0,0-.15-.861,2.783,2.783,0,0,0,2.15-2.7V44.782A2.756,2.756,0,0,0,61.336,43,2.756,2.756,0,0,0,62,41.218V38.782A2.785,2.785,0,0,0,59.218,36ZM39.844,4.7a8.592,8.592,0,0,1-5.115-.262A6.139,6.139,0,0,1,37,4,6.492,6.492,0,0,1,39.844,4.7Zm-8.233.638c2.249.985,4.732,2.075,7.983,1.472L35.465,13h-6.93l-5.16-7.74C26.649,3.162,28.862,4.13,31.611,5.335ZM27,17a1,1,0,0,1,0-2H37a1,1,0,0,1,0,2ZM20,53.218a.783.783,0,0,1-.782.782H6.782A.783.783,0,0,1,6,53.218V50.782A.783.783,0,0,1,6.782,50H8v2h2V50h2v2h2V50h2v2h2V50h1.218a.783.783,0,0,1,.782.782ZM4,38.782A.783.783,0,0,1,4.782,38H6v2H8V38h2v2h2V38h2v2h2V38h1.218a.783.783,0,0,1,.782.782v2.436a.783.783,0,0,1-.782.782H4.782A.783.783,0,0,1,4,41.218Zm0,6A.783.783,0,0,1,4.782,44H6v2H8V44h2v2h2V44h2v2h2V44h1.218a.783.783,0,0,1,.782.782v2.436a.783.783,0,0,1-.782.782H4.782A.783.783,0,0,1,4,47.218ZM18,59.218a.783.783,0,0,1-.782.782H4.782A.783.783,0,0,1,4,59.218V56.782A.783.783,0,0,1,4.782,56H6v2H8V56h2v2h2V56h2v2h2V56h1.218a.783.783,0,0,1,.782.782Zm7-8.436A.783.783,0,0,1,25.782,50H27v2h2V50h2v2h2V50h2v2h2V50h1.218a.783.783,0,0,1,.782.782v2.436a.783.783,0,0,1-.782.782H25.782A.783.783,0,0,1,25,53.218ZM25.782,60A.783.783,0,0,1,25,59.218V56.782A.783.783,0,0,1,25.782,56H27v2h2V56h2v2h2V56h2v2h2V56h1.218a.783.783,0,0,1,.782.782v2.436a.783.783,0,0,1-.782.782ZM46,38.782A.783.783,0,0,1,46.782,38H48v2h2V38h2v2h2V38h2v2h2V38h1.218a.783.783,0,0,1,.782.782v2.436a.783.783,0,0,1-.782.782H46.782A.783.783,0,0,1,46,41.218Zm-2,12A.783.783,0,0,1,44.782,50H46v2h2V50h2v2h2V50h2v2h2V50h1.218a.783.783,0,0,1,.782.782v2.436a.783.783,0,0,1-.782.782H44.782A.783.783,0,0,1,44,53.218Zm16,8.436a.783.783,0,0,1-.782.782H46.782A.783.783,0,0,1,46,59.218V56.782A.783.783,0,0,1,46.782,56H48v2h2V56h2v2h2V56h2v2h2V56h1.218a.783.783,0,0,1,.782.782Zm0-12a.783.783,0,0,1-.782.782H46.782A.783.783,0,0,1,46,47.218V44.782A.783.783,0,0,1,46.782,44H48v2h2V44h2v2h2V44h2v2h2V44h1.218a.783.783,0,0,1,.782.782Z"></path></svg>