<svg xmlns="http://www.w3.org/2000/svg" data-name="Layer 1 copy" viewBox="0 0 48 48" id="operator"><path d="M9.981 23.871h1.912a13.243 13.243 0 0 0 3.033 5.6c3.844 4.2 6.889 6.334 9.054 6.334s5.2-2.131 9.042-6.333a13.15 13.15 0 0 0 2.8-4.8l1.723-.791h.4a1.391 1.391 0 0 0 1.391-1.391V19.457a1.391 1.391 0 0 0-1.391-1.391h-.4l.569-1.616a17.382 17.382 0 0 0 .69-4.14c.16-2.9-1.04-6.5-4.11-7.82a6.075 6.075 0 0 0-4.64-.04S28.6.36 20.77 1.09c-3.79.35-7.19 1.79-9.4 5.49a14.286 14.286 0 0 0-1.8 9.54l.409 1.946A1.391 1.391 0 0 0 8.59 19.457V22.48A1.391 1.391 0 0 0 9.981 23.871zm21.935 4.583C28.47 32.224 25.651 34.3 23.98 34.3s-4.5-2.076-7.946-5.846A11.763 11.763 0 0 1 12.95 20.5V18.233a36.1 36.1 0 0 0 13.079-3.5 23.125 23.125 0 0 0 3.315-1.891 5.549 5.549 0 0 1-2.2 3.129.75.75 0 0 0 .336 1.387A12.109 12.109 0 0 0 35 15.625V20.5a11.854 11.854 0 0 1-.411 3.078L28.23 26.5a2.233 2.233 0 0 0-1.48-.567A2.254 2.254 0 1 0 29 28.184a2.2 2.2 0 0 0-.038-.374l4.889-2.244A11.692 11.692 0 0 1 31.916 28.454zM16.386 42.681l.461-.671-2.841-.46a.751.751 0 0 1-.629-.7L13.1 34.912 4.25 38.083 1 47H19.645l-3.187-3.38A.75.75 0 0 1 16.386 42.681z"></path><path d="M14.576 34.383l.271 5.784 3.407.552a.749.749 0 0 1 .5 1.165l-.787 1.147L21.707 47H24L17.333 33.4zM29.247 41.883a.749.749 0 0 1 .5-1.164l3.406-.552.272-5.784L30.667 33.4 24 47h2.293l3.742-3.969z"></path><path d="M43.75,38.083,34.9,34.912l-.279,5.933a.751.751,0,0,1-.629.7l-2.84.46.461.672a.75.75,0,0,1-.073.938L28.355,47H47Z"></path></svg>