<svg xmlns="http://www.w3.org/2000/svg" enable-background="new 0 0 66 66" viewBox="0 0 66 66" id="rocket"><path d="M23.26 16.25c-6.15.33-11.96 2.89-16.39 7.31-1.9 1.92-3.5 4.13-4.73 6.61C1.88 30.7 2 31.35 2.45 31.73c.65.54 1.37.25 1.59.09 3.35-2.28 7.19-3.56 11.18-3.74C17.33 23.74 20.04 19.77 23.26 16.25zM34.17 61.95c-.34.48-.32 1.16.09 1.59.66.7 1.38.4 1.56.31 2.48-1.24 4.69-2.83 6.61-4.73 4.39-4.4 6.94-10.16 7.31-16.27-3.54 3.19-7.53 5.86-11.83 7.93C37.73 54.78 36.45 58.62 34.17 61.95zM24.55 53.28L12.72 41.45c-.09-.09-.17-.18-.25-.27-3 4.05-6.75 16.44-7.19 17.93-.14.46-.01.95.33 1.29.25.26.71.47 1.29.34 1.5-.46 13.89-4.2 17.94-7.19C24.73 53.46 24.64 53.37 24.55 53.28zM10.1 32.33c-.51-.51-1.33-.51-1.84 0L5.6 34.99c-.51.51-.51 1.33 0 1.84.25.25 1.07.7 1.84 0l2.66-2.66C10.61 33.66 10.61 32.84 10.1 32.33zM8.26 38.87L5.6 41.53c-.51.51-.51 1.33 0 1.84.25.25.93.72 1.84 0l2.66-2.66c.51-.51.51-1.33 0-1.84C9.59 38.36 8.77 38.36 8.26 38.87zM25.26 55.81l-2.66 2.66c-.51.51-.51 1.33 0 1.84.25.25.96.73 1.84 0l2.66-2.66c.51-.51.51-1.33 0-1.84C26.59 55.3 25.77 55.3 25.26 55.81zM33.64 55.81c-.51-.51-1.33-.51-1.84 0l-2.66 2.66c-.51.51-.51 1.33 0 1.84.25.25.96.71 1.84 0l2.66-2.66C34.15 57.14 34.15 56.32 33.64 55.81zM46.94 27.8c2.41-2.41 2.45-6.38 0-8.74-3.43-3.31-7.36-1.47-8.74 0-2.33 2.48-2.41 6.33 0 8.74C40.6 30.21 44.53 30.21 46.94 27.8zM63.98 3.29c-.02-.7-.58-1.25-1.27-1.27-.41-.01-.81-.01-1.22-.01-5.81 0-11.4 1-16.61 2.84l16.3 16.3C63.16 15.54 64.13 9.51 63.98 3.29z"></path><path d="M14.21,38.36c-0.11,0.45,0.02,0.92,0.34,1.24l11.84,11.84c0.46,0.5,1.14,0.37,1.24,0.34c8.41-2.14,16.09-6.5,22.2-12.61c4.47-4.47,7.93-9.67,10.32-15.36L42.22,5.87C28.59,11.61,18.04,23.34,14.21,38.36z M48.78,17.21c3.43,3.43,3.57,9.15,0,12.43c-5.17,4.74-10.71,1.71-12.43,0c-3.43-3.43-3.43-9,0-12.43C39.78,13.79,45.35,13.79,48.78,17.21z"></path></svg>