<svg xmlns="http://www.w3.org/2000/svg" width="512" height="512" enable-background="new 0 0 512 512" viewBox="0 0 512 512" id="message"><path d="M486.468,459.813H26.47c-3.977,0-7.202-3.224-7.202-7.201V191.069c0-2.564,1.364-4.936,3.581-6.226
				c2.218-1.288,4.952-1.302,7.182-0.034l226.411,128.773l226.467-128.774c2.229-1.266,4.964-1.254,7.181,0.036
				c2.217,1.289,3.58,3.66,3.58,6.225v261.542C493.669,456.589,490.445,459.813,486.468,459.813z M33.671,445.41h445.595V203.448
				L260,328.128c-2.207,1.256-4.912,1.256-7.12,0L33.671,203.45V445.41z"></path><path d="M256.441,329.069c-1.229,0-2.457-0.313-3.561-0.941L22.909,197.329c-2.251-1.28-3.641-3.671-3.641-6.261
				c0-2.59,1.391-4.979,3.643-6.26L252.882,54.065c2.206-1.253,4.911-1.253,7.118,0l230.026,130.743
				c2.252,1.279,3.643,3.67,3.643,6.26c0.001,2.591-1.39,4.981-3.642,6.261L260,328.129
				C258.896,328.756,257.669,329.069,256.441,329.069z M41.039,191.07l215.403,122.514L471.896,191.07L256.441,68.61L41.039,191.07z
				"></path></svg>