<svg xmlns="http://www.w3.org/2000/svg" viewBox="0 0 16 16" id="pin"><path fill="#ffffff" d="M8.277 1c-2.639.004-4.75 2.398-4.75 5.111 0 1.937 1.1 3.702 2.21 5.022-1.118.142-2.092.371-2.821.676-.414.173-.753.368-1.002.597-.249.23-.414.509-.414.819 0 .386.25.715.613.98.364.265.862.486 1.467.672 1.21.372 2.854.598 4.67.598 1.816 0 3.46-.226 4.67-.598.605-.186 1.103-.407 1.467-.672.364-.265.613-.594.613-.98 0-.31-.165-.588-.412-.817-.248-.228-.586-.424-.998-.597-.723-.304-1.69-.531-2.799-.674 1.128-1.378 2.236-3.267 2.236-5.403 0-2.713-2.137-4.738-4.75-4.734zm0 .5c2.356-.004 4.25 1.781 4.25 4.234 0 3.862-3.979 6.958-4.252 7.168-.135-.102-1.028-.764-2.058-1.963-1.106-1.286-2.19-3.027-2.19-4.828 0-2.453 1.916-4.607 4.25-4.611zm-.07 2.35a1.753 1.753 0 0 0-1.678 1.818 1.753 1.753 0 0 0 1.819 1.678 1.753 1.753 0 0 0 1.677-1.819A1.753 1.753 0 0 0 8.207 3.85Zm.02.498a1.248 1.248 0 0 1 1.3 1.199 1.246 1.246 0 0 1-1.199 1.299A1.245 1.245 0 0 1 7.03 5.648a1.246 1.246 0 0 1 1.198-1.3Zm-2.09 7.238c1.035 1.132 1.992 1.86 1.992 1.86l.148.11.149-.11s.94-.708 1.967-1.856c1.222.133 2.274.377 3.003.683.378.159.669.333.852.502.183.17.252.316.252.45 0 .166-.114.362-.408.576-.294.214-.748.424-1.319.6-1.142.35-2.749.574-4.523.574-1.774 0-3.381-.223-4.523-.575-.571-.175-1.025-.385-1.319-.6-.294-.213-.408-.409-.408-.575 0-.134.068-.282.252-.452.184-.17.476-.345.855-.503.736-.308 1.798-.551 3.03-.684z" color="#000" font-family="sans-serif" font-weight="400" overflow="visible" style="line-height:normal;text-indent:0;text-align:start;text-decoration-line:none;text-decoration-style:solid;text-decoration-color:#000;text-transform:none;block-progression:tb;white-space:normal;isolation:auto;mix-blend-mode:normal;solid-color:#000;solid-opacity:1"></path></svg>