<svg xmlns="http://www.w3.org/2000/svg" xmlns:xlink="http://www.w3.org/1999/xlink" viewBox="0 0 32 32" id="agreement"><defs><linearGradient id="c" x1="15" x2="15" y1="7.61" y2="25.84" gradientUnits="userSpaceOnUse"><stop offset="0" stop-color="#fad0a2"></stop><stop offset=".56" stop-color="#febb92"></stop><stop offset=".61" stop-color="#feb68e"></stop><stop offset=".84" stop-color="#fda07f"></stop><stop offset=".99" stop-color="#fd9879"></stop></linearGradient><linearGradient id="d" x1="18.26" x2="18.26" y1="26.22" y2="9.36" gradientUnits="userSpaceOnUse"><stop offset="0" stop-color="#fad0a2"></stop><stop offset=".45" stop-color="#febb92"></stop><stop offset=".99" stop-color="#fd9879"></stop></linearGradient><linearGradient id="a" x1="27" x2="27" y1="9.52" y2="24.23" gradientUnits="userSpaceOnUse"><stop offset="0" stop-color="#0b8099"></stop><stop offset=".46" stop-color="#094180"></stop><stop offset="1" stop-color="#081266"></stop></linearGradient><linearGradient id="b" x1="26.99" x2="26.99" y1="15.74" y2="21.19" gradientUnits="userSpaceOnUse"><stop offset="0" stop-color="#0b8099"></stop><stop offset=".5" stop-color="#094180"></stop><stop offset=".65" stop-color="#09387b"></stop><stop offset=".89" stop-color="#081f6d"></stop><stop offset="1" stop-color="#081266"></stop></linearGradient><linearGradient id="e" x1="27" x2="27" y1="19.44" y2="15.57" gradientUnits="userSpaceOnUse"><stop offset="0" stop-color="#f9c916"></stop><stop offset=".48" stop-color="#f58127"></stop><stop offset=".8" stop-color="#ec5825"></stop><stop offset=".98" stop-color="#e64024"></stop></linearGradient><linearGradient id="f" x1="5" x2="5" y1="269.44" y2="284.16" gradientTransform="matrix(1 0 0 -1 0 290.32)" xlink:href="#a"></linearGradient><linearGradient id="g" x1="4.99" x2="4.99" y1="275.66" y2="281.11" gradientTransform="matrix(1 0 0 -1 0 290.32)" xlink:href="#b"></linearGradient><linearGradient id="h" x1="5" x2="5" y1="280.08" y2="276.17" gradientTransform="matrix(1 0 0 -1 0 290.32)" gradientUnits="userSpaceOnUse"><stop offset="0" stop-color="#40d8bd"></stop><stop offset=".52" stop-color="#2f9fcf"></stop><stop offset=".98" stop-color="#2749bf"></stop></linearGradient></defs><path fill="url(#c)" d="M7 18.28h2l4.32 4.16a1 1 0 0 0 .72.32 1 1 0 0 0 1-1v-.48l1.28 1.2a1.19 1.19 0 0 0 .72.32 1.06 1.06 0 0 0 1-1v-.48l.72.72a1.44 1.44 0 0 0 .72.32 1.06 1.06 0 0 0 1-1v-.48l.8.72a1 1 0 0 0 1.72-.84v-.48l-9-9H7Z"></path><path fill="url(#d)" d="M25 11.72h-.56c-3.44-.48-4.88-2.48-5.84-2.48h-2c-1 0-3 2-4.88 3.52-.56.4 0 1.52 1.76 1.52a3.62 3.62 0 0 0 2.48-1l7 7 1-1h1Z"></path><path fill="url(#a)" d="M26 10.75h2a1.06 1.06 0 0 1 1 1v7.43a1 1 0 0 1-1 1h-2a1 1 0 0 1-1-1v-7.42a1.07 1.07 0 0 1 1-1Z"></path><path fill="url(#b)" d="M26.37 18.23h1.25v1.97h-1.25z"></path><path fill="url(#e)" d="M27.62 18.21a.61.61 0 0 1-.62.65.63.63 0 1 1 0-1.25.61.61 0 0 1 .62.6Z"></path><path fill="url(#f)" d="M4 19.65h2a1.07 1.07 0 0 0 1-1v-7.44a1 1 0 0 0-1-1H4a1 1 0 0 0-1 1v7.42a1.08 1.08 0 0 0 1 1Z"></path><path fill="url(#g)" d="M4.37 10.19h1.25v1.97H4.37z"></path><path fill="url(#h)" d="M5.63 12.19a.62.62 0 0 0-.63-.66.62.62 0 0 0-.62.66.6.6 0 0 0 .62.59.61.61 0 0 0 .63-.59Z"></path></svg>