<svg viewBox="0 0 68 68"><path fill="#010101" d="M60.33 7.68a22.77 22.77 0 0 0-34.8 29.1l-3.94 3.95a3.5 3.5 0 0 0-4 .58L2 56.88a3.42 3.42 0 0 0 0 4.84L6.29 66a3.42 3.42 0 0 0 4.83 0L26.7 50.42a3.37 3.37 0 0 0 .59-4.01l3.92-3.92a22.75 22.75 0 0 0 29.12-2.59 22.81 22.81 0 0 0 0-32.22zM19 42.72c.47-.47 1.25-.5 1.8-.14.2.35-.28-.25 4.41 4.5.7.7.5 1.5.08 1.93l-1.57 1.57-6.29-6.3L19 42.73zm-6.31 18.89L6.4 55.3l9.62-9.6 6.29 6.28-9.62 9.62zm-9.27-1.3a1.42 1.42 0 0 1 0-2.01L5 56.73l6.29 6.29-1.57 1.57c-.54.54-1.48.53-2.01 0L3.42 60.3zM26 44.88l-2.86-2.87 3.61-3.61a22.87 22.87 0 0 0 2.87 2.87L26 44.88zm32.93-6.4a20.65 20.65 0 0 1-14.7 6.1c-4.85 0-9.45-1.66-13.16-4.7l-2.91-2.91a20.78 20.78 0 1 1 30.77 1.52z"/><path fill="#010101" d="M56.95 11.06a17.99 17.99 0 1 0-25.46 25.46 17.99 17.99 0 1 0 25.46-25.46zM55.53 35.1A16 16 0 1 1 32.9 12.48 16 16 0 1 1 55.53 35.1z"/><path fill="#010101" d="M47.56 11.47a1 1 0 0 0-.88 1.8 16.6 16.6 0 0 1 3.53 2.35 1 1 0 1 0 1.3-1.51 18.65 18.65 0 0 0-3.95-2.64zm9.27 10.2a19.69 19.69 0 0 0-2.34-4.3 1 1 0 1 0-1.63 1.16 17.7 17.7 0 0 1 2.1 3.86 1 1 0 1 0 1.87-.73z"/></svg>