<svg viewBox="0 0 64 64"><path d="M28 25h8c1.31-.02 1.32-1.98 0-2h-8c-1.31.02-1.32 1.98 0 2zm0 6h8c1.31-.02 1.32-1.98 0-2h-8c-1.31.02-1.32 1.98 0 2zm0 6h8c1.31-.02 1.32-1.98 0-2h-8c-1.31.02-1.32 1.98 0 2zm0 6h8c1.31-.02 1.32-1.98 0-2h-8c-1.31.02-1.32 1.98 0 2zm15-17h12a1 1 0 1 0 0-2H43c-1.31.02-1.32 1.98 0 2zm0 6h12a1 1 0 1 0 0-2H43c-1.31.02-1.32 1.98 0 2zm0 6h12a1 1 0 1 0 0-2H43c-1.31.02-1.32 1.98 0 2zm13 5a1 1 0 0 0-1-1H43a1 1 0 1 0 0 2h12a1 1 0 0 0 1-1z"/><path d="M5 60h54c3.34-.03 4.14-4.7 1-5.82V21.82c3.14-1.05 2.3-5.86-1-5.82h-3v-1a3 3 0 0 0-3-3h-8a3 3 0 0 0-3 3v1c-.8.05-3.36-.15-4.08.2a4 4 0 0 0-2.04-2.7l-2.93-8.81a1 1 0 0 0-1.9 0l-2.93 8.8a4 4 0 0 0-2.04 2.72c-.71-.36-3.29-.16-4.08-.2v-1a3 3 0 0 0-3-3h-8a3 3 0 0 0-3 3v1H5C1.67 16 .86 20.72 4 21.8v32.4C.88 55.29 1.63 59.97 5 60Zm54-2H5c-1.3-.02-1.33-1.98 0-2h54c1.3.02 1.33 1.98 0 2ZM19 46h-8a1 1 0 0 0-1 1v7H6V22h17v32h-3v-7a1 1 0 0 0-1-1Zm-1 2v6h-6v-6h6Zm11 6v-6h6v6h-6Zm24-8h-8a1 1 0 0 0-1 1v7h-3V22h17v32h-4v-7a1 1 0 0 0-1-1Zm-1 2v6h-6v-6h6Zm-8-33a1 1 0 0 1 1-1h8a1 1 0 0 1 1 1v1H44v-1Zm-5 3h20c.87-.02 1.35 1.12.7 1.71a.96.96 0 0 1-.7.29H40.44a4 4 0 0 0-2.08-1.75A.96.96 0 0 1 39 18Zm-7-9.84L33.61 13H30.4L32 8.16ZM28 17c0-1.1.9-2 2-2h4a2 2 0 0 1 2 2v1h-8v-1Zm-1 3h10a2 2 0 0 1 2 2v32h-2v-7a1 1 0 0 0-1-1h-8a1 1 0 0 0-1 1v7h-2V22c0-1.1.9-2 2-2Zm-17-5a1 1 0 0 1 1-1h8a1 1 0 0 1 1 1v1H10v-1Zm-5 3h20c.24 0 .45.1.64.26A4 4 0 0 0 23.56 20H5c-1.3-.02-1.32-1.97 0-2Z"/><path d="M9 26h12a1 1 0 1 0 0-2H9c-1.31.02-1.32 1.98 0 2zm0 6h12a1 1 0 1 0 0-2H9c-1.31.02-1.32 1.98 0 2zm0 6h12a1 1 0 1 0 0-2H9c-1.31.02-1.32 1.98 0 2zm13 5a1 1 0 0 0-1-1H9a1 1 0 1 0 0 2h12a1 1 0 0 0 1-1z"/></svg>