<svg data-name="Layer 1" viewBox="0 0 64 64"><path d="M62 6.37a2.95 2.95 0 0 0-.87-2.1l-1.4-1.4a2.98 2.98 0 0 0-4.2 0l-2.8 2.8-11.96 11.96A10.89 10.89 0 0 0 35 16H21.21a6.17 6.17 0 0 0-6.19 5.42 5.98 5.98 0 0 0 3.36 5.98A2.92 2.92 0 0 1 20 30.06V47a10.99 10.99 0 0 0 4.7 9H14V33a1 1 0 0 0-1-1H3a1 1 0 0 0-.6 1.8L5.33 36 2.4 38.2A1 1 0 0 0 3 40h9v16H3a1 1 0 0 0-1 1v4a1 1 0 0 0 1 1h58a1 1 0 0 0 1-1v-4a1 1 0 0 0-1-1V29a1 1 0 0 0-1-1H50a1 1 0 0 0-.6 1.8l2.93 2.2-2.93 2.2A1 1 0 0 0 50 36h9v20h-9.6a5.82 5.82 0 0 0 1.58-3.42 5.98 5.98 0 0 0-3.36-5.98A2.92 2.92 0 0 1 46 43.94V27a10.83 10.83 0 0 0-.42-2.98l11.35-11.35.69.7a.97.97 0 0 1 0 1.37l-5.59 5.59 1.42 1.41 5.58-5.58a2.98 2.98 0 0 0 0-4.21l-.69-.7 2.79-2.77a2.96 2.96 0 0 0 .87-2.1ZM6 38l1.6-1.2a1 1 0 0 0 0-1.6L6 34h6v4Zm47-4 1.6-1.2a1 1 0 0 0 0-1.6L53 30h6v4Zm7 24v2H4v-2h56Zm-13.26-9.6a4 4 0 0 1 2.24 4A4.15 4.15 0 0 1 44.8 56H31a9.01 9.01 0 0 1-9-9V30.06a4.91 4.91 0 0 0-2.74-4.46 4 4 0 0 1-2.24-4A4.15 4.15 0 0 1 21.2 18H35a8.9 8.9 0 0 1 4.3 1.1l-6.12 6.11a.9.9 0 0 0-.1.15l-.07.09-4.89 9.08a1 1 0 0 0 1.35 1.35L38.55 31c.03-.01.05-.05.08-.07a.9.9 0 0 0 .15-.1l5.12-5.12A9 9 0 0 1 44 27v16.94a4.91 4.91 0 0 0 2.74 4.46Zm-12.6-20.82 2.28 2.29-4.96 2.67Zm3.94 1.12-2.78-2.78L53.44 7.78l2.77 2.78ZM59.7 7.06l-2.08 2.09-2.78-2.78 2.09-2.08a.98.98 0 0 1 1.38 0l1.4 1.4a.97.97 0 0 1 0 1.37Z"/><path d="M24 38h18v2H24zm0 9h18v2H24z"/></svg>